<?xml version="1.0" encoding="UTF-8"?>
<!-- Generator: visioncortex VTracer 0.6.1 -->
<svg version="1.1" xmlns="http://www.w3.org/2000/svg" width="1280" height="1280">
<path d="M0 0 C100.32 0 200.64 0 304 0 C304.66 2.64 305.32 5.28 306 8 C307.44976501 9.15981201 308.90539439 10.3156123 310.421875 11.38671875 C313.30599139 14.33508526 314.30732268 18.32127063 315.62890625 22.16015625 C317.23718238 25.4912581 319.10593518 26.76059883 322 29 C323.40625 31.40234375 323.40625 31.40234375 324.5 33.9375 C325.99695636 37.16604538 326.94748329 38.95004508 329.5625 41.4375 C332.72898504 44.76636889 333.5680919 48.10916869 334.8125 52.4765625 C336.31317172 55.6654899 338.02136534 56.22008416 341 58 C342.625 60.7421875 342.625 60.7421875 344 63.875 C345.67076924 67.46072784 346.77764078 69.78293505 349.625 72.5625 C352.78415909 75.80479486 353.58677102 79.17472522 354.8125 83.4765625 C356.30706749 86.65251841 358.00511004 87.29333586 361 89 C362.08203125 90.91015625 362.08203125 90.91015625 362.8125 93.0625 C364.36391732 96.96953871 366.28908276 99.787989 369 103 C372.22074819 106.8220339 374.29038085 110.27479369 375.91796875 114.9921875 C376.94334847 117.21755323 376.94334847 117.21755323 379.42578125 118.890625 C382.40254367 121.32985369 383.43699981 123.38489161 385 126.875 C386.63534409 130.3474787 388.0826078 133.41825533 390.6875 136.25 C392.82416526 138.79089922 393.47058424 140.03245584 394.4375 143.0625 C395.66472941 146.75805523 397.27294036 148.09889048 400.45703125 150.38671875 C403.29615113 153.35521624 404.31172122 157.33404735 405.62890625 161.16015625 C407.23463248 164.48597669 409.13099909 165.74190623 412 168 C413.22265625 170.5078125 413.22265625 170.5078125 414.0625 173.125 C415.09686935 176.80518241 415.09686935 176.80518241 417.95703125 179.00390625 C418.96830078 179.49697266 418.96830078 179.49697266 420 180 C421.4140625 182.20703125 421.4140625 182.20703125 422.625 184.8125 C423.02976562 185.66457031 423.43453125 186.51664063 423.8515625 187.39453125 C425 190 425 190 425.8984375 192.69921875 C427.23688267 195.49476557 428.28890999 195.70016233 431 197 C432.08984375 198.98828125 432.08984375 198.98828125 432.9375 201.3125 C434.21166631 204.44814365 434.99394076 205.99394076 437.4375 208.4375 C441.36953106 212.36953106 444.30936529 217.72093602 445.46484375 223.20703125 C445.88481003 225.36273781 445.88481003 225.36273781 448.8125 226.625 C452.77579107 229.57804041 453.40334383 232.06439788 455 236.6015625 C456.34543526 239.82850488 458.42287426 241.68719485 461 244 C463.09701669 246.95135682 464.01778709 249.07368937 464.875 252.625 C465.63150329 256.13683591 465.63150329 256.13683591 468.375 257.375 C471.36863317 259.22820149 471.62305585 260.01986544 472.875 263.1875 C474.2955457 266.76773714 475.84064355 269.15366304 478.5 271.9375 C481.27200212 274.88017741 482.71529225 277.3769877 484.0625 281.1875 C485.75344216 285.96277873 488.05657117 287.79596407 492 291 C493.92989698 294.37435976 496 298.04851975 496 302 C496.99 302.33 497.98 302.66 499 303 C501.72643499 306.38984053 503.71245864 310.02235939 504.9375 314.1875 C506.15501685 317.41033871 507.66298606 318.31569035 510.35546875 320.3203125 C513.34113656 323.36980693 514.77041393 327.37300896 516.5546875 331.203125 C518.22735408 334.43996086 520.40466425 336.47480846 523 339 C523.82750668 340.99005266 524.47093737 342.95458362 525.03125 345.03515625 C525.93577728 347.23345627 525.93577728 347.23345627 528.41796875 348.86328125 C531.47370372 351.39200595 532.39137332 353.45262819 533.8125 357.125 C534.44091797 358.70667969 534.44091797 358.70667969 535.08203125 360.3203125 C536 363 536 363 536 365 C536.7425 365.144375 537.485 365.28875 538.25 365.4375 C541.96254599 367.54690113 542.44606811 369.91098559 543.97265625 373.7734375 C544.95171297 376.2326834 544.95171297 376.2326834 547.4375 378.4375 C551.55707154 382.55707154 554.46220264 388.00188557 555.49609375 393.765625 C555.66238281 394.50296875 555.82867188 395.2403125 556 396 C556.763125 396.2475 557.52625 396.495 558.3125 396.75 C562.11807178 398.52003339 562.4804284 400.99792126 563.97265625 404.7734375 C564.95171297 407.2326834 564.95171297 407.2326834 567.4375 409.4375 C571.58670715 413.58670715 573.60148708 418.90681848 575.99609375 424.203125 C576.95718654 426.22520813 576.95718654 426.22520813 579.375 427.6875 C582.96466939 430.8498278 584.45318017 434.52372809 586 439 C586 439.66 586 440.32 586 441 C586.5775 441.185625 587.155 441.37125 587.75 441.5625 C591.86538114 444.19177129 593.60091794 448.57470694 594.875 453.125 C596.14869488 456.37999802 597.7299251 457.45369383 600.46875 459.5078125 C603.3767582 462.34163682 604.73072172 466.1996315 606 470 C606 470.66 606 471.32 606 472 C606.99 472.33 607.98 472.66 609 473 C612.60432933 476.60432933 613.81851331 480.08845313 614.99609375 484.9140625 C615.86153979 487.22056134 615.86153979 487.22056134 618.37890625 488.34375 C621.81943424 490.51779451 622.93339614 493.2695624 624.5 496.875 C626.67169443 501.81066915 629.11414202 505.22279266 633 509 C633.92806458 511.0095592 634.4574546 512.90451891 635.03125 515.03515625 C635.93577728 517.23345627 635.93577728 517.23345627 638.41796875 518.86328125 C641.47370372 521.39200595 642.39137332 523.45262819 643.8125 527.125 C644.44091797 528.70667969 644.44091797 528.70667969 645.08203125 530.3203125 C646 533 646 533 646 535 C646.7425 535.144375 647.485 535.28875 648.25 535.4375 C651.96254599 537.54690113 652.44606811 539.91098559 653.97265625 543.7734375 C654.95171297 546.2326834 654.95171297 546.2326834 657.4375 548.4375 C662.19951777 553.19951777 664.91350076 559.38652634 666 566 C666.598125 566.0825 667.19625 566.165 667.8125 566.25 C670.7674528 567.26312667 671.41112799 568.30582572 673 571 C673.70640964 572.98856355 674.36757529 574.97465699 674.9609375 577 C675.93487756 579.22125686 675.93487756 579.22125686 678.4140625 580.84375 C682.34203479 584.11903807 683.495469 588.25013912 685.375 592.90625 C687.16365623 596.31157629 688.98911768 597.68577191 692 600 C693.37109375 602.33203125 693.37109375 602.33203125 694.4375 604.8125 C696.01543688 608.2172597 697.54655339 610.83762309 700.125 613.5625 C703.09930008 616.7487095 704.11548436 619.76788416 705.06640625 623.984375 C705.87558465 626.23468678 705.87558465 626.23468678 708.40625 627.40625 C711.69223142 629.42534702 712.40465254 631.24888755 713.9375 634.75 C715.70255144 638.53940166 717.30452311 641.6546654 720.1875 644.6875 C723.15189001 647.81316512 724.12684442 650.81825586 725.06640625 654.984375 C725.87558465 657.23468678 725.87558465 657.23468678 728.40625 658.40625 C731.69223142 660.42534702 732.40465254 662.24888755 733.9375 665.75 C736.07398917 670.3313376 738.24243445 673.70993125 741.70703125 677.34375 C743.20428071 679.26167681 743.71240722 680.92037442 744.375 683.25 C745.1921859 685.83111155 745.54056192 686.73666354 747.921875 688.1015625 C750.09492953 688.89871299 750.09492953 688.89871299 752.2578125 689.4296875 C752.83273437 689.61789062 753.40765625 689.80609375 754 690 C754.33 690.66 754.66 691.32 755 692 C755.495 349.46 755.495 349.46 756 0 C856.98 0 957.96 0 1062 0 C1062 422.4 1062 844.8 1062 1280 C959.04 1280 856.08 1280 750 1280 C748.68 1275.71 747.36 1271.42 746 1267 C743.62494782 1264.29151077 743.62494782 1264.29151077 741 1262 C740.11903508 1260.33686997 739.28978602 1258.64581459 738.5 1256.9375 C736.5314858 1252.74129418 734.62754554 1250.88343364 731 1248 C729.02738785 1244.47040969 727.35886535 1240.80079281 726.56640625 1236.82421875 C726.11088945 1234.64172651 726.11088945 1234.64172651 723.1875 1233.3125 C719.40756916 1230.57019723 718.77116995 1228.56763465 717.12890625 1224.35546875 C715.89467948 1221.78024819 714.46694358 1220.1213178 712.5 1218.0625 C709.05475522 1214.40467628 707.62536018 1210.86319384 705.9609375 1206.17578125 C704.64993038 1203.20736268 702.5357659 1201.96521858 700 1200 C698.96875 1197.91015625 698.96875 1197.91015625 698 1195.5 C696.73365182 1192.35455452 696.21193275 1191.1695462 693.5 1189 C689.87823485 1186.10258788 688.37969543 1182.37802796 687 1178 C687 1176.68 687 1175.36 687 1174 C685.8553125 1173.62875 685.8553125 1173.62875 684.6875 1173.25 C680.41586041 1171.26319089 679.12428907 1168.29127028 677.1875 1164.1875 C675.75344102 1161.1980386 674.20503025 1158.97596042 671.9375 1156.5625 C668.95308147 1153.31694485 667.89571065 1150.28175576 666.93359375 1146.015625 C666.12441535 1143.76531322 666.12441535 1143.76531322 663.59375 1142.59375 C660.30776858 1140.57465298 659.59534746 1138.75111245 658.0625 1135.25 C655.92576067 1130.66812597 653.74559865 1127.29798565 650.30078125 1123.6484375 C648.82482442 1121.77800572 648.21918176 1120.13768883 647.5 1117.875 C646.31432625 1114.2278398 644.7387913 1112.87507018 641.609375 1110.60546875 C638.6245472 1107.62788567 637.20828568 1103.64305883 635.4453125 1099.86328125 C634.22376806 1097.44330268 633.12612856 1095.72109931 631.3125 1093.75 C628.8317846 1090.79996007 627.95122374 1088.49463556 626.96875 1084.83203125 C626.0912557 1082.76715932 626.0912557 1082.76715932 623.625 1081.69140625 C620.20096159 1079.48514341 619.06931332 1076.73667324 617.5 1073.125 C615.32840114 1068.18954806 612.88585772 1064.77702809 609 1061 C608.06640625 1058.9375 608.06640625 1058.9375 607.5625 1057 C606.33803769 1053.26435226 604.75914505 1051.92416348 601.54296875 1049.61328125 C598.70384887 1046.64478376 597.68827878 1042.66595265 596.37109375 1038.83984375 C594.7657095 1035.51473164 592.86863654 1034.25684201 590 1032 C588.79187609 1029.48439989 588.01944058 1026.99965377 587.1875 1024.33984375 C586.16980862 1021.79893584 586.16980862 1021.79893584 583.5625 1020.625 C580.00964224 1018.37196825 579.440456 1015.96237094 578 1012.0625 C576.04657554 1006.78492425 574.45721334 1004.36433892 570 1001 C568.8125 998.78125 568.8125 998.78125 568 996.5 C566.73365182 993.35455452 566.21193275 992.1695462 563.5 990 C559.48099061 986.78479249 557.56525448 981.83645715 556.56640625 976.82421875 C556.11088945 974.64172651 556.11088945 974.64172651 553.1875 973.3125 C549.38561337 970.55426852 548.66179698 968.40780433 546.99609375 964.1640625 C545.60642361 961.14493599 543.36374076 959.30464724 541 957 C539.09059627 953.84311917 537.23394807 950.62224516 536.703125 946.94140625 C536.13861724 944.73694473 536.13861724 944.73694473 533.59375 943.58984375 C530.3683552 941.61283218 529.8263492 940.05364057 528.5 936.5625 C526.58725673 931.97551378 524.9425973 930.03276716 521 927 C518.47834906 922.62804674 517 919.07909013 517 914 C516.236875 913.7525 515.47375 913.505 514.6875 913.25 C510.41586041 911.26319089 509.12428907 908.29127028 507.1875 904.1875 C505.75344102 901.1980386 504.20503025 898.97596042 501.9375 896.5625 C498.95308147 893.31694485 497.89571065 890.28175576 496.93359375 886.015625 C496.12524779 883.76586954 496.12524779 883.76586954 493.59765625 882.6015625 C490.28337219 880.55816932 489.55054599 878.65777808 488 875.125 C486.32827086 871.54149856 485.18777063 869.18777063 482.375 866.375 C479.85308115 863.85308115 479.23875552 862.30126035 478.0625 859 C476.5646403 854.89742846 475.20919866 853.08971392 471.57421875 850.53515625 C468.58281287 847.61797881 467.19085441 843.60568656 465.4453125 839.86328125 C464.22376806 837.44330268 463.12612856 835.72109931 461.3125 833.75 C458.8317846 830.79996007 457.95122374 828.49463556 456.96875 824.83203125 C456.0912557 822.76715932 456.0912557 822.76715932 453.625 821.69140625 C450.20096159 819.48514341 449.06931332 816.73667324 447.5 813.125 C445.32840114 808.18954806 442.88585772 804.77702809 439 801 C438.06640625 798.9375 438.06640625 798.9375 437.5625 797 C436.33803769 793.26435226 434.75914505 791.92416348 431.54296875 789.61328125 C428.70384887 786.64478376 427.68827878 782.66595265 426.37109375 778.83984375 C424.76820708 775.5199047 422.84585878 774.27213365 420 772 C419.00308997 769.41928936 418.514983 766.94925399 417.96875 764.2421875 C417.20260531 761.75400318 417.20260531 761.75400318 414.57421875 760.99609375 C413.72472656 760.66738281 412.87523437 760.33867188 412 760 C410.48828125 757.79296875 410.48828125 757.79296875 409.3125 755.1875 C408.71888672 753.90939453 408.71888672 753.90939453 408.11328125 752.60546875 C407.36369135 750.85116538 406.6610326 749.07614768 406.00390625 747.28515625 C405.13713418 744.79660642 405.13713418 744.79660642 402.625 743.25 C399.90489435 740.91848087 399.29698168 739.72663734 398 736.5 C396.3340963 732.36882752 394.53433552 730.73911003 391 728 C388.89606123 724.60188583 387.3499957 721.02665404 386.0625 717.25 C385.12391155 714.80140006 385.12391155 714.80140006 382.625 713.25 C379.42879162 710.51039282 378.57914964 707.99636241 377.03125 704.1640625 C375.60261498 701.16609356 373.36323315 699.30415232 371 697 C369.09059627 693.84311917 367.23394807 690.62224516 366.703125 686.94140625 C366.13861724 684.73694473 366.13861724 684.73694473 363.59375 683.58984375 C360.3683552 681.61283218 359.8263492 680.05364057 358.5 676.5625 C356.58725673 671.97551378 354.9425973 670.03276716 351 667 C348.47834906 662.62804674 347 659.07909013 347 654 C346.236875 653.7525 345.47375 653.505 344.6875 653.25 C340.41586041 651.26319089 339.12428907 648.29127028 337.1875 644.1875 C335.75344102 641.1980386 334.20503025 638.97596042 331.9375 636.5625 C328.95308147 633.31694485 327.89571065 630.28175576 326.93359375 626.015625 C326.12384285 623.76392996 326.12384285 623.76392996 323.5859375 622.58984375 C320.32610654 620.58568786 319.62861001 618.81233859 318.1875 615.3125 C317.76855469 614.31863281 317.34960938 613.32476563 316.91796875 612.30078125 C316.61503906 611.54152344 316.31210937 610.78226563 316 610 C311.65815798 610.18464366 311.65815798 610.18464366 308 612 C307.90080568 613.46643856 307.87131508 614.93764568 307.86938947 616.40743405 C307.86570876 617.36720403 307.86202805 618.32697401 307.85823581 619.31582794 C307.85925847 620.38490368 307.86028114 621.45397942 307.8613348 622.55545139 C307.85707147 624.24893259 307.85707147 624.24893259 307.85272202 625.97662553 C307.84578628 629.13831112 307.84337803 632.29996454 307.8427946 635.46165656 C307.8410737 638.89071299 307.83359299 642.3197574 307.82681805 645.74880689 C307.81573097 651.76786356 307.80837759 657.78691598 307.80341911 663.80598068 C307.79602929 672.7562075 307.78294998 681.70641956 307.76867336 690.65663771 C307.74482431 705.70995657 307.72563638 720.76327803 307.70907402 735.81660652 C307.69265209 750.7285606 307.67417741 765.64050978 307.65294075 780.55245781 C307.65162314 781.47846872 307.65030554 782.40447963 307.648948 783.35855147 C307.64224623 788.06099256 307.63550759 792.76343359 307.62875474 797.4658746 C307.58094873 830.80252169 307.53777609 864.13917334 307.49731445 897.47583008 C307.45798771 929.8687371 307.41655394 962.26164031 307.37231445 994.65454102 C307.36953711 996.69032286 307.36675983 998.7261047 307.36398262 1000.76188654 C307.34140651 1017.30256822 307.31868457 1033.8432497 307.29592726 1050.38393114 C307.19072762 1126.92261319 307.09618756 1203.46130501 307 1280 C205.69 1280 104.38 1280 0 1280 C0 857.6 0 435.2 0 0 Z " fill="#000000" transform="translate(109,0)"/>
</svg>
